<svg width="137" height="27" viewBox="0 0 137 27" fill="none" xmlns="http://www.w3.org/2000/svg">
<path d="M15.156 16.226C15.3613 16.226 15.5433 16.3053 15.702 16.464L17.186 18.074C16.3647 19.0913 15.352 19.8707 14.148 20.412C12.9533 20.9533 11.516 21.224 9.836 21.224C8.33333 21.224 6.98 20.9673 5.776 20.454C4.58133 19.9407 3.55933 19.2267 2.71 18.312C1.86067 17.3973 1.20733 16.3053 0.75 15.036C0.302 13.7667 0.0780001 12.3807 0.0780001 10.878C0.0780001 9.35667 0.320667 7.966 0.806 6.706C1.29133 5.43667 1.97267 4.34467 2.85 3.43C3.73667 2.51533 4.79133 1.806 6.014 1.302C7.23667 0.788666 8.59 0.532 10.074 0.532C11.5487 0.532 12.8553 0.774666 13.994 1.26C15.142 1.74533 16.1173 2.38 16.92 3.164L15.66 4.914C15.5853 5.026 15.4873 5.124 15.366 5.208C15.254 5.292 15.0953 5.334 14.89 5.334C14.75 5.334 14.6053 5.29667 14.456 5.222C14.3067 5.138 14.1433 5.04 13.966 4.928C13.7887 4.80667 13.5833 4.676 13.35 4.536C13.1167 4.396 12.846 4.27 12.538 4.158C12.23 4.03667 11.8707 3.93867 11.46 3.864C11.0587 3.78 10.592 3.738 10.06 3.738C9.15467 3.738 8.324 3.90133 7.568 4.228C6.82133 4.54533 6.17733 5.012 5.636 5.628C5.09467 6.23467 4.67467 6.98133 4.376 7.868C4.07733 8.74533 3.928 9.74867 3.928 10.878C3.928 12.0167 4.08667 13.0293 4.404 13.916C4.73067 14.8027 5.16933 15.5493 5.72 16.156C6.27067 16.7627 6.91933 17.2293 7.666 17.556C8.41267 17.8733 9.21533 18.032 10.074 18.032C10.5873 18.032 11.0493 18.004 11.46 17.948C11.88 17.892 12.2627 17.8033 12.608 17.682C12.9627 17.5607 13.294 17.4067 13.602 17.22C13.9193 17.024 14.232 16.786 14.54 16.506C14.6333 16.422 14.7313 16.3567 14.834 16.31C14.9367 16.254 15.044 16.226 15.156 16.226ZM25.2749 6.412C26.3389 6.412 27.3049 6.58467 28.1729 6.93C29.0503 7.27533 29.7969 7.76533 30.4129 8.4C31.0383 9.03467 31.5189 9.80933 31.8549 10.724C32.1909 11.6387 32.3589 12.6607 32.3589 13.79C32.3589 14.9287 32.1909 15.9553 31.8549 16.87C31.5189 17.7847 31.0383 18.564 30.4129 19.208C29.7969 19.852 29.0503 20.3467 28.1729 20.692C27.3049 21.0373 26.3389 21.21 25.2749 21.21C24.2016 21.21 23.2263 21.0373 22.3489 20.692C21.4716 20.3467 20.7203 19.852 20.0949 19.208C19.4789 18.564 18.9983 17.7847 18.6529 16.87C18.3169 15.9553 18.1489 14.9287 18.1489 13.79C18.1489 12.6607 18.3169 11.6387 18.6529 10.724C18.9983 9.80933 19.4789 9.03467 20.0949 8.4C20.7203 7.76533 21.4716 7.27533 22.3489 6.93C23.2263 6.58467 24.2016 6.412 25.2749 6.412ZM25.2749 18.55C26.4696 18.55 27.3516 18.1487 27.9209 17.346C28.4996 16.5433 28.7889 15.3673 28.7889 13.818C28.7889 12.2687 28.4996 11.088 27.9209 10.276C27.3516 9.464 26.4696 9.058 25.2749 9.058C24.0616 9.058 23.1609 9.46867 22.5729 10.29C21.9943 11.102 21.7049 12.278 21.7049 13.818C21.7049 15.358 21.9943 16.534 22.5729 17.346C23.1609 18.1487 24.0616 18.55 25.2749 18.55ZM38.4971 0.195999V21H35.0391V0.195999H38.4971ZM45.4424 0.195999V21H41.9844V0.195999H45.4424ZM58.1417 12.166C58.1417 11.718 58.0764 11.298 57.9457 10.906C57.8244 10.5047 57.6377 10.1547 57.3857 9.856C57.1337 9.55733 56.8117 9.324 56.4197 9.156C56.037 8.97867 55.589 8.89 55.0757 8.89C54.077 8.89 53.2884 9.17467 52.7097 9.744C52.1404 10.3133 51.7764 11.1207 51.6177 12.166H58.1417ZM51.5477 14.252C51.6037 14.9893 51.7344 15.6287 51.9397 16.17C52.145 16.702 52.4157 17.1453 52.7517 17.5C53.0877 17.8453 53.4844 18.1067 53.9417 18.284C54.4084 18.452 54.9217 18.536 55.4817 18.536C56.0417 18.536 56.5224 18.4707 56.9237 18.34C57.3344 18.2093 57.689 18.0647 57.9877 17.906C58.2957 17.7473 58.5617 17.6027 58.7857 17.472C59.019 17.3413 59.243 17.276 59.4577 17.276C59.747 17.276 59.9617 17.3833 60.1017 17.598L61.0957 18.858C60.713 19.306 60.2837 19.684 59.8077 19.992C59.3317 20.2907 58.8324 20.5333 58.3097 20.72C57.7964 20.8973 57.269 21.0233 56.7277 21.098C56.1957 21.1727 55.6777 21.21 55.1737 21.21C54.175 21.21 53.2464 21.0467 52.3877 20.72C51.529 20.384 50.7824 19.894 50.1477 19.25C49.513 18.5967 49.0137 17.794 48.6497 16.842C48.2857 15.8807 48.1037 14.77 48.1037 13.51C48.1037 12.53 48.2624 11.6107 48.5797 10.752C48.897 9.884 49.3497 9.13267 49.9377 8.498C50.535 7.854 51.2584 7.34533 52.1077 6.972C52.9664 6.59867 53.9324 6.412 55.0057 6.412C55.911 6.412 56.7464 6.55667 57.5117 6.846C58.277 7.13533 58.935 7.56 59.4857 8.12C60.0364 8.67067 60.4657 9.352 60.7737 10.164C61.091 10.9667 61.2497 11.886 61.2497 12.922C61.2497 13.4447 61.1937 13.7993 61.0817 13.986C60.9697 14.1633 60.755 14.252 60.4377 14.252H51.5477ZM69.0947 13.468C69.5241 13.468 69.8974 13.412 70.2147 13.3C70.5321 13.1787 70.7934 13.0153 70.9987 12.81C71.2134 12.6047 71.3721 12.3573 71.4747 12.068C71.5867 11.7787 71.6427 11.4613 71.6427 11.116C71.6427 10.4067 71.4281 9.84667 70.9987 9.436C70.5787 9.016 69.9441 8.806 69.0947 8.806C68.2454 8.806 67.6061 9.016 67.1767 9.436C66.7567 9.84667 66.5467 10.4067 66.5467 11.116C66.5467 11.452 66.5981 11.7647 66.7007 12.054C66.8127 12.3433 66.9714 12.5953 67.1767 12.81C67.3914 13.0153 67.6574 13.1787 67.9747 13.3C68.3014 13.412 68.6747 13.468 69.0947 13.468ZM73.0007 21.644C73.0007 21.364 72.9167 21.1353 72.7487 20.958C72.5807 20.7807 72.3521 20.6453 72.0627 20.552C71.7734 20.4493 71.4327 20.3747 71.0407 20.328C70.6581 20.2813 70.2474 20.2487 69.8087 20.23C69.3794 20.202 68.9314 20.1787 68.4647 20.16C68.0074 20.1413 67.5594 20.104 67.1207 20.048C66.7381 20.2627 66.4254 20.5147 66.1827 20.804C65.9494 21.0933 65.8327 21.4293 65.8327 21.812C65.8327 22.064 65.8934 22.2973 66.0147 22.512C66.1454 22.736 66.3461 22.9273 66.6167 23.086C66.8967 23.2447 67.2561 23.366 67.6947 23.45C68.1334 23.5433 68.6701 23.59 69.3047 23.59C69.9487 23.59 70.5041 23.5387 70.9707 23.436C71.4374 23.3427 71.8201 23.2073 72.1187 23.03C72.4267 22.862 72.6507 22.6567 72.7907 22.414C72.9307 22.1807 73.0007 21.924 73.0007 21.644ZM76.4447 7.126V8.414C76.4447 8.82467 76.1974 9.07667 75.7027 9.17L74.4147 9.408C74.6107 9.90267 74.7087 10.444 74.7087 11.032C74.7087 11.7413 74.5641 12.3853 74.2747 12.964C73.9947 13.5333 73.6027 14.0187 73.0987 14.42C72.5947 14.8213 71.9974 15.134 71.3067 15.358C70.6254 15.5727 69.8881 15.68 69.0947 15.68C68.8147 15.68 68.5441 15.666 68.2827 15.638C68.0214 15.61 67.7647 15.5727 67.5127 15.526C67.0647 15.7967 66.8407 16.1 66.8407 16.436C66.8407 16.7253 66.9714 16.94 67.2327 17.08C67.5034 17.2107 67.8581 17.304 68.2967 17.36C68.7354 17.416 69.2347 17.4533 69.7947 17.472C70.3547 17.4813 70.9287 17.5093 71.5167 17.556C72.1047 17.6027 72.6787 17.6867 73.2387 17.808C73.7987 17.92 74.2981 18.102 74.7367 18.354C75.1754 18.606 75.5254 18.9513 75.7867 19.39C76.0574 19.8193 76.1927 20.3747 76.1927 21.056C76.1927 21.6907 76.0341 22.3067 75.7167 22.904C75.4087 23.5013 74.9561 24.0333 74.3587 24.5C73.7707 24.9667 73.0427 25.34 72.1747 25.62C71.3161 25.9093 70.3361 26.054 69.2347 26.054C68.1521 26.054 67.2094 25.9467 66.4067 25.732C65.6041 25.5267 64.9367 25.2467 64.4047 24.892C63.8727 24.5467 63.4761 24.1453 63.2147 23.688C62.9534 23.2307 62.8227 22.7547 62.8227 22.26C62.8227 21.588 63.0234 21.028 63.4247 20.58C63.8354 20.1227 64.3954 19.7587 65.1047 19.488C64.7221 19.292 64.4187 19.0307 64.1947 18.704C63.9707 18.3773 63.8587 17.948 63.8587 17.416C63.8587 17.2013 63.8961 16.982 63.9707 16.758C64.0547 16.5247 64.1714 16.296 64.3207 16.072C64.4794 15.848 64.6754 15.638 64.9087 15.442C65.1421 15.2367 65.4174 15.0547 65.7347 14.896C65.0067 14.504 64.4327 13.9813 64.0127 13.328C63.6021 12.6747 63.3967 11.9093 63.3967 11.032C63.3967 10.3227 63.5367 9.68333 63.8167 9.114C64.1061 8.53533 64.5027 8.04533 65.0067 7.644C65.5201 7.23333 66.1221 6.92067 66.8127 6.706C67.5127 6.49133 68.2734 6.384 69.0947 6.384C69.7107 6.384 70.2894 6.44933 70.8307 6.58C71.3721 6.70133 71.8667 6.88333 72.3147 7.126H76.4447ZM87.6456 12.166C87.6456 11.718 87.5803 11.298 87.4496 10.906C87.3283 10.5047 87.1416 10.1547 86.8896 9.856C86.6376 9.55733 86.3156 9.324 85.9236 9.156C85.5409 8.97867 85.0929 8.89 84.5796 8.89C83.5809 8.89 82.7923 9.17467 82.2136 9.744C81.6443 10.3133 81.2803 11.1207 81.1216 12.166H87.6456ZM81.0516 14.252C81.1076 14.9893 81.2383 15.6287 81.4436 16.17C81.6489 16.702 81.9196 17.1453 82.2556 17.5C82.5916 17.8453 82.9883 18.1067 83.4456 18.284C83.9123 18.452 84.4256 18.536 84.9856 18.536C85.5456 18.536 86.0263 18.4707 86.4276 18.34C86.8383 18.2093 87.1929 18.0647 87.4916 17.906C87.7996 17.7473 88.0656 17.6027 88.2896 17.472C88.5229 17.3413 88.7469 17.276 88.9616 17.276C89.2509 17.276 89.4656 17.3833 89.6056 17.598L90.5996 18.858C90.2169 19.306 89.7876 19.684 89.3116 19.992C88.8356 20.2907 88.3363 20.5333 87.8136 20.72C87.3003 20.8973 86.7729 21.0233 86.2316 21.098C85.6996 21.1727 85.1816 21.21 84.6776 21.21C83.6789 21.21 82.7503 21.0467 81.8916 20.72C81.0329 20.384 80.2863 19.894 79.6516 19.25C79.0169 18.5967 78.5176 17.794 78.1536 16.842C77.7896 15.8807 77.6076 14.77 77.6076 13.51C77.6076 12.53 77.7663 11.6107 78.0836 10.752C78.4009 9.884 78.8536 9.13267 79.4416 8.498C80.0389 7.854 80.7623 7.34533 81.6116 6.972C82.4703 6.59867 83.4363 6.412 84.5096 6.412C85.4149 6.412 86.2503 6.55667 87.0156 6.846C87.7809 7.13533 88.4389 7.56 88.9896 8.12C89.5403 8.67067 89.9696 9.352 90.2776 10.164C90.5949 10.9667 90.7536 11.886 90.7536 12.922C90.7536 13.4447 90.6976 13.7993 90.5856 13.986C90.4736 14.1633 90.2589 14.252 89.9416 14.252H81.0516Z" fill="#323232"/>
<path d="M97.6746 3.752V9.744H105.263V12.754H97.6746V21H93.8946V0.755999H106.663V3.752H97.6746ZM114.306 6.412C115.37 6.412 116.336 6.58467 117.204 6.93C118.082 7.27533 118.828 7.76533 119.444 8.4C120.07 9.03467 120.55 9.80933 120.886 10.724C121.222 11.6387 121.39 12.6607 121.39 13.79C121.39 14.9287 121.222 15.9553 120.886 16.87C120.55 17.7847 120.07 18.564 119.444 19.208C118.828 19.852 118.082 20.3467 117.204 20.692C116.336 21.0373 115.37 21.21 114.306 21.21C113.233 21.21 112.258 21.0373 111.38 20.692C110.503 20.3467 109.752 19.852 109.126 19.208C108.51 18.564 108.03 17.7847 107.684 16.87C107.348 15.9553 107.18 14.9287 107.18 13.79C107.18 12.6607 107.348 11.6387 107.684 10.724C108.03 9.80933 108.51 9.03467 109.126 8.4C109.752 7.76533 110.503 7.27533 111.38 6.93C112.258 6.58467 113.233 6.412 114.306 6.412ZM114.306 18.55C115.501 18.55 116.383 18.1487 116.952 17.346C117.531 16.5433 117.82 15.3673 117.82 13.818C117.82 12.2687 117.531 11.088 116.952 10.276C116.383 9.464 115.501 9.058 114.306 9.058C113.093 9.058 112.192 9.46867 111.604 10.29C111.026 11.102 110.736 12.278 110.736 13.818C110.736 15.358 111.026 16.534 111.604 17.346C112.192 18.1487 113.093 18.55 114.306 18.55ZM136.196 21H132.864C132.612 21 132.407 20.9347 132.248 20.804C132.099 20.6733 131.973 20.524 131.87 20.356L128.832 15.358C128.785 15.5167 128.729 15.666 128.664 15.806C128.608 15.946 128.543 16.0767 128.468 16.198L125.78 20.356C125.677 20.5147 125.551 20.664 125.402 20.804C125.253 20.9347 125.066 21 124.842 21H121.748L126.676 13.594L121.944 6.636H125.276C125.528 6.636 125.715 6.67333 125.836 6.748C125.957 6.81333 126.065 6.92533 126.158 7.084L129.168 11.872C129.271 11.5547 129.415 11.242 129.602 10.934L132.024 7.154C132.229 6.80867 132.495 6.636 132.822 6.636H136L131.282 13.44L136.196 21Z" fill="#FF6E3A"/>
</svg>
